<!--?xml version="1.0" encoding="utf-8"?-->
<!-- Generator: Adobe Illustrator 18.1.1, SVG Export Plug-In . SVG Version: 6.00 Build 0)  -->

<svg version="1.1" id="_x31_0" xmlns="http://www.w3.org/2000/svg" xmlns:xlink="http://www.w3.org/1999/xlink" x="0px" y="0px" viewBox="0 0 512 512" style="width: 128px; height: 128px; opacity: 1;" xml:space="preserve">
<style type="text/css">
	.st0{fill:#374149;}
</style>
<g>
	<path class="st0" d="M256,0C114.61,0,0,114.614,0,256s114.61,256,256,256c141.383,0,256-114.614,256-256S397.383,0,256,0z M256,448
		c-105.867,0-192-86.133-192-192S150.133,64,256,64s192,86.133,192,192S361.867,448,256,448z" style="fill: rgb(100, 100, 100);"></path>
	<path class="st0" d="M394.637,228.215l-46.008-76.801c-4.367-7.348-12.449-11.934-21.035-11.934H184.332
		c-8.59,0-16.598,4.586-21.039,11.934l-45.934,76.801c-4.511,7.574-4.656,17.035-0.218,24.828c1.457,2.473,3.277,4.656,5.386,6.473
		L236.379,394.77c0.218,0.293,0.511,0.586,0.73,0.875c0.582,0.656,1.164,1.308,1.746,1.89c0.508,0.512,0.946,0.946,1.238,1.094
		l1.02,0.875l0.582,0.434c1.02,0.656,2.039,1.313,3.422,2.043l1.165,0.507c0.73,0.325,1.538,0.406,2.301,0.649
		c0.515,0.164,1.078,0.328,1.648,0.465c0.754,0.183,1.473,0.527,2.238,0.633l0.726,0.145l0.875,0.074c0.582,0,1.234,0.07,1.89,0.07
		c0.726,0,1.313-0.07,2.184-0.144l1.386-0.145c0,0,1.234-0.218,1.672-0.293c0.875-0.219,1.676-0.434,2.11-0.578
		c0.874-0.222,1.675-0.586,2.546-0.949c0.512-0.219,1.024-0.434,1.313-0.582c1.094-0.582,2.183-1.238,2.984-1.82l1.602-0.727
		l1.602-1.965l1.164-1.238l114.946-136.566c2.183-1.817,4.004-4.074,5.386-6.551C399.297,245.32,399.149,235.789,394.637,228.215z
		 M321.988,173.91l1.164,2.039l-17.496,30.273l-8.758,14.996l-27.25-47.308H321.988z M271.637,217.32l7.746,13.59h-31.161
		l-15.726-0.078l23.465-40.687L271.637,217.32z M190.008,173.91h34.847l17.45,0.082l-18.176,31.465l-9.199,15.762l-26.086-45.269
		L190.008,173.91z M177.125,195.531l13.641,23.676l6.652,11.703h-27.32l-14.106-0.082L177.125,195.531z M159.582,250.782h45.859
		l13.965,43.484l12.511,39.446L159.582,250.782z M269.367,302.434l-13.473,41.894l-29.707-93.546h46.035l13.57,0.046
		L269.367,302.434z M314.602,294.133l-34.652,39.504l26.605-82.855h27.848l17.922,0.102L314.602,294.133z M328.375,230.91
		l-13.914-0.078l20.41-35.375l14.043,23.504l7.046,11.95H328.375z" style="fill: rgb(100, 100, 100);"></path>
</g>
</svg>
